<?xml version="1.0" standalone="no"?>
<!DOCTYPE svg PUBLIC "-//W3C//DTD SVG 20010904//EN"
 "http://www.w3.org/TR/2001/REC-SVG-20010904/DTD/svg10.dtd">
<svg version="1.0" xmlns="http://www.w3.org/2000/svg"
 width="920.000000pt" height="551.000000pt" viewBox="0 0 920.000000 551.000000"
 preserveAspectRatio="xMidYMid meet">

<g transform="translate(0.000000,551.000000) scale(0.100000,-0.100000)"
fill="#000000" stroke="none">
<path d="M4490 5162 c-71 -27 -101 -46 -152 -98 -55 -56 -86 -115 -101 -195
-27 -150 65 -326 207 -393 193 -91 418 -12 507 178 118 251 -64 528 -345 525
-40 0 -91 -8 -116 -17z m247 -105 c45 -24 99 -80 125 -130 30 -57 30 -163 1
-228 -44 -98 -138 -159 -246 -159 -85 0 -145 22 -197 73 -61 60 -80 106 -80
198 0 120 44 192 156 250 32 16 54 19 124 16 55 -2 96 -9 117 -20z"/>
<path d="M5210 4274 c-14 -2 -58 -9 -99 -15 -143 -21 -301 -86 -429 -175 l-64
-44 -66 44 c-377 248 -843 246 -1214 -6 -61 -41 -197 -169 -236 -222 l-22 -29
-92 31 c-220 72 -422 77 -638 16 -291 -84 -538 -287 -665 -549 -81 -167 -100
-253 -100 -460 1 -180 -2 -166 68 -415 61 -216 283 -993 333 -1162 4 -15 17
-18 64 -18 32 0 61 3 63 8 3 4 -15 72 -39 152 -24 80 -63 210 -85 290 -22 80
-70 249 -106 375 -195 691 -201 724 -158 970 46 260 238 503 500 630 149 73
231 90 425 89 150 0 173 -3 255 -28 49 -15 92 -29 94 -32 3 -3 0 -17 -6 -32
-6 -15 -23 -55 -38 -90 -66 -157 -92 -374 -65 -540 45 -284 204 -541 433 -703
88 -62 187 -113 197 -102 30 32 114 201 139 281 39 123 51 201 51 328 0 210
-62 410 -183 589 -53 78 -197 222 -269 269 -32 21 -58 45 -58 54 0 8 35 48 77
89 218 210 455 294 765 271 145 -11 357 -88 447 -163 l32 -27 -39 -42 c-132
-144 -228 -362 -253 -580 -27 -229 35 -479 168 -679 50 -75 157 -194 205 -228
l28 -20 66 63 c337 323 416 833 193 1247 -37 69 -69 115 -145 209 l-27 33 23
24 c32 34 209 120 297 144 62 17 106 23 238 35 105 10 284 -29 414 -90 115
-54 197 -112 279 -198 l63 -66 -79 -60 c-455 -343 -560 -952 -245 -1427 l36
-53 56 31 c343 192 542 508 558 887 8 184 -27 354 -106 511 -17 33 -31 63 -31
65 0 10 158 54 239 66 110 17 282 8 381 -20 173 -49 360 -165 469 -290 165
-190 248 -446 221 -687 -11 -104 -20 -144 -89 -408 -29 -110 -73 -279 -97
-375 -80 -310 -171 -663 -180 -692 -5 -16 2 -18 60 -18 l65 0 10 38 c5 20 48
188 95 372 100 391 180 696 227 865 31 114 33 129 33 295 1 206 -15 285 -90
439 -100 210 -258 378 -454 485 -270 147 -594 171 -885 65 l-80 -29 -63 69
c-75 84 -199 179 -294 227 -176 89 -427 140 -578 118z m-513 -497 c63 -81 127
-207 159 -312 26 -82 28 -103 28 -250 -1 -145 -3 -168 -28 -250 -31 -103 -82
-212 -129 -277 -46 -64 -96 -120 -105 -116 -17 7 -92 97 -130 156 -56 87 -101
200 -124 312 -24 113 -20 303 7 410 25 96 116 275 180 353 56 67 57 68 77 50
11 -10 40 -44 65 -76z m1453 -169 c159 -342 92 -747 -170 -1022 -63 -66 -175
-156 -194 -156 -9 0 -62 110 -84 175 -54 162 -63 363 -23 520 56 218 180 397
369 533 25 17 50 32 54 32 5 0 27 -37 48 -82z m-2972 20 c86 -58 134 -102 199
-182 70 -87 150 -241 177 -341 40 -153 39 -336 -4 -493 -23 -83 -75 -192 -91
-192 -16 0 -105 66 -167 124 -109 102 -215 282 -255 431 -39 143 -40 335 -2
479 20 77 74 206 87 206 5 0 30 -14 56 -32z"/>
<path d="M6970 1161 c-82 -25 -168 -110 -196 -193 -44 -134 28 -290 163 -350
106 -47 261 -12 322 73 34 46 61 124 61 175 l0 33 -131 3 c-145 3 -146 3 -135
-57 l7 -35 64 0 c57 0 65 -2 65 -19 0 -25 -54 -79 -86 -87 -14 -4 -48 -4 -75
-2 -86 9 -142 84 -141 189 1 68 19 108 67 144 69 53 162 42 227 -27 l36 -40
38 35 c37 34 38 35 21 60 -23 36 -76 74 -126 92 -45 16 -138 19 -181 6z"/>
<path d="M5262 1142 c-150 -54 -226 -211 -176 -368 24 -79 97 -153 173 -179
180 -59 365 59 387 248 24 202 -189 368 -384 299z m178 -114 c156 -79 96 -337
-78 -338 -85 0 -151 50 -173 133 -42 155 108 277 251 205z"/>
<path d="M6075 1140 c-3 -6 -3 -79 1 -164 8 -185 2 -235 -33 -270 -35 -35
-100 -36 -139 -2 -34 28 -43 91 -43 299 l-1 138 -56 -3 -56 -3 1 -175 c2 -195
5 -229 32 -282 37 -73 104 -104 210 -95 77 7 116 23 153 67 39 47 47 95 46
277 -2 228 -1 223 -61 223 -26 0 -51 -5 -54 -10z"/>
<path d="M6324 973 c3 -98 5 -222 6 -275 l0 -98 55 0 55 0 0 105 c0 58 3 105
8 105 4 0 39 -47 77 -103 l70 -102 68 -3 c37 -2 67 0 67 4 0 4 -33 50 -73 103
-41 53 -77 101 -80 108 -5 7 8 20 33 34 77 43 105 167 53 237 -37 51 -75 62
-217 62 l-128 0 6 -177z m230 65 c19 -27 20 -77 2 -100 -15 -20 -58 -38 -92
-38 -23 0 -24 2 -24 80 l0 80 49 0 c40 0 53 -4 65 -22z"/>
<path d="M4261 1118 c-4 -13 -30 -89 -57 -170 -27 -81 -52 -144 -56 -140 -3 4
-34 78 -68 165 l-61 157 -58 0 -57 0 -18 -142 c-10 -79 -24 -186 -31 -238 -8
-52 -16 -113 -17 -135 l-3 -39 48 -1 c27 0 51 3 53 6 1 3 12 77 24 164 19 146
25 176 33 164 2 -2 31 -76 64 -164 l61 -160 33 0 34 0 57 160 c32 88 61 167
64 175 4 8 21 -64 38 -160 l32 -175 57 -3 c49 -3 57 -1 57 15 -1 10 -24 135
-53 278 l-53 260 -57 3 c-52 3 -58 1 -66 -20z"/>
<path d="M4624 1008 c3 -73 5 -200 6 -281 l0 -149 134 4 c117 3 138 6 162 24
45 33 67 70 72 122 5 57 -14 103 -56 129 -15 9 -29 18 -31 20 -2 1 10 18 28
38 25 29 31 45 31 81 0 110 -55 143 -233 144 l-119 0 6 -132z m189 31 c79 -36
44 -129 -47 -129 -19 0 -25 7 -30 38 -3 20 -6 52 -6 70 0 29 3 32 30 32 16 0
40 -5 53 -11z m47 -234 c13 -12 20 -31 20 -56 0 -50 -35 -79 -96 -79 l-44 0 0
81 0 82 50 -5 c28 -3 59 -13 70 -23z"/>
<path d="M3419 1126 c-2 -2 -3 -128 -1 -280 l3 -276 149 0 c167 0 152 -7 153
70 1 25 0 25 -96 28 l-97 3 0 69 0 70 95 0 95 0 0 45 0 45 -95 0 -95 0 0 65 0
65 95 0 95 0 0 50 0 50 -148 0 c-82 0 -151 -2 -153 -4z"/>
<path d="M2620 921 c1 -220 -1 -230 -59 -257 -28 -14 -41 -14 -72 -5 -68 21
-74 39 -77 258 l-4 193 -56 0 -57 0 6 -202 c6 -219 10 -242 61 -295 52 -54
145 -71 242 -43 57 16 112 73 123 127 8 39 8 46 5 281 l-2 142 -55 0 -55 0 0
-199z"/>
<path d="M2810 1116 c0 -3 41 -62 91 -131 l92 -126 -31 -42 c-17 -23 -63 -88
-102 -144 l-71 -103 65 0 64 0 64 92 c35 50 68 93 74 95 6 2 40 -39 75 -91
l64 -95 68 -1 c52 0 66 3 61 13 -4 6 -48 68 -97 136 -49 68 -91 130 -94 137
-2 7 34 69 82 138 l86 126 -63 0 -64 0 -52 -75 c-29 -41 -56 -76 -60 -79 -5
-3 -33 30 -63 72 l-55 77 -67 3 c-37 2 -67 1 -67 -2z"/>
<path d="M1941 873 c1 -131 4 -255 7 -275 l4 -38 139 0 c138 0 139 0 145 24 3
13 4 35 2 47 -3 23 -7 24 -90 27 l-88 3 -1 152 c-1 84 -2 159 -3 167 -2 8 -3
41 -4 73 l-2 57 -56 0 -55 0 2 -237z"/>
</g>
</svg>
